<?xml version="1.0" standalone="no"?>
<!DOCTYPE svg PUBLIC "-//W3C//DTD SVG 20010904//EN"
 "http://www.w3.org/TR/2001/REC-SVG-20010904/DTD/svg10.dtd">
<svg version="1.0" xmlns="http://www.w3.org/2000/svg"
 width="903.000000pt" height="1129.000000pt" viewBox="0 0 903.000000 1129.000000"
 preserveAspectRatio="xMidYMid meet">

<g transform="translate(0.000000,1129.000000) scale(0.100000,-0.100000)"
fill="#000000" stroke="none">
<path d="M0 5640 l0 -5640 4515 0 4515 0 0 5640 0 5640 -4515 0 -4515 0 0
-5640z m1860 4430 l0 -1000 -812 2 -813 3 -3 985 c-1 542 0 991 3 998 3 9 176
12 815 12 l810 0 0 -1000z m1720 0 l0 -1000 -807 2 -808 3 -3 985 c-1 542 0
991 3 998 3 9 175 12 810 12 l805 0 0 -1000z m1760 0 l0 -1000 -397 2 -398 3
2 29 c2 32 -12 56 -33 56 -22 0 -44 -30 -44 -61 l0 -29 -385 0 -385 0 0 1000
0 1000 820 0 820 0 0 -1000z m1718 -2 l2 -998 -800 0 -800 0 0 993 c0 547 3
997 7 1000 3 4 362 6 797 5 l791 -3 3 -997z m1737 2 l0 -995 -815 0 -815 0 -3
985 c-1 542 0 991 3 998 3 10 172 12 817 10 l813 -3 0 -995z m2 -2173 l-2
-1032 -815 0 -815 0 -3 1028 c-2 1010 -2 1028 17 1035 11 4 380 6 820 4 l799
-2 -1 -1033z m-6939 1 l-3 -1033 -810 0 -810 0 -3 1033 -2 1032 815 0 815 0
-2 -1032z m1717 -30 l0 -1003 -765 0 -765 0 -3 1002 -2 1002 132 3 c73 2 419
2 768 1 l635 -2 0 -1003z m890 2 l0 -1005 -380 0 -380 0 -3 1002 -2 1003 367
3 c203 1 375 2 383 2 13 0 15 -119 15 -1005z m870 -3 l0 -1002 -395 0 -395 0
-3 995 c-1 547 0 1000 2 1005 2 6 142 9 397 7 l394 -2 0 -1003z m1640 1 l0
-1003 -755 0 -755 0 -3 1002 -2 1002 142 3 c79 2 420 2 758 1 l615 -2 0 -1003z
m-5115 -2188 l0 -1060 -815 0 -815 0 0 1053 c0 580 3 1057 7 1060 3 4 370 7
815 7 l808 0 0 -1060z m1718 48 l-3 -1013 -765 0 -765 0 -3 1000 c-1 550 0
1006 3 1013 3 9 167 12 770 12 l765 0 -2 -1012z m890 0 l-3 -1013 -380 0 -380
0 -3 1000 c-1 550 0 1006 3 1013 3 9 90 12 385 12 l380 0 -2 -1012z m867 -3
l0 -1010 -395 0 -395 0 -3 1000 c-1 550 0 1006 3 1013 3 10 88 12 397 10 l393
-3 0 -1010z m1643 3 l-3 -1013 -755 0 -755 0 -3 1000 c-1 550 0 1006 3 1013 3
9 165 12 760 12 l755 0 -2 -1012z m1818 -46 c1 -749 -2 -1054 -10 -1060 -6 -4
-374 -6 -818 -4 l-808 2 0 1053 c0 580 3 1057 7 1060 3 4 371 6 817 5 l811 -3
1 -1053z m-6941 -2212 l0 -1025 -810 0 -810 0 -3 1015 c-1 558 0 1021 3 1028
3 10 171 12 812 10 l808 -3 0 -1025z m1720 0 l0 -1025 -799 -3 c-633 -2 -801
0 -808 10 -9 16 -11 2032 -1 2041 3 4 367 6 807 5 l801 -3 0 -1025z m795 960
l5 -65 48 -3 47 -3 0 -42 c0 -51 9 -66 40 -69 23 -3 25 1 30 52 l5 55 52 3 52
3 3 67 3 67 340 0 340 0 0 -1025 0 -1025 -815 0 -815 0 -3 1015 c-1 558 0
1021 3 1028 3 10 75 12 332 10 l328 -3 5 -65z m2685 -960 l0 -1025 -795 0
-795 0 -3 1015 c-1 558 0 1021 3 1028 3 10 168 12 797 10 l793 -3 0 -1025z
m1739 1013 c6 -24 6 -2003 0 -2025 -5 -17 -52 -18 -814 -18 -727 0 -808 2
-814 16 -8 21 -8 2029 1 2037 3 4 370 7 814 7 761 0 808 -1 813 -17z m-6934
-3188 l0 -1025 -812 2 -813 3 -3 1023 -2 1022 815 0 815 0 0 -1025z m1720 0
l0 -1025 -807 2 -808 3 -3 1023 -2 1022 810 0 810 0 0 -1025z m1760 0 l0
-1025 -820 0 -820 0 0 1025 0 1025 820 0 820 0 0 -1025z m1718 3 l-3 -1023
-797 -3 -798 -2 0 1025 0 1025 800 0 800 0 -2 -1022z m1737 -3 l0 -1020 -815
0 -815 0 -3 1010 c-1 556 0 1016 3 1023 3 10 172 12 817 10 l813 -3 0 -1020z"/>
</g>
</svg>
